<svg width="16" height="16" viewBox="0 0 16 16" fill="none" xmlns="http://www.w3.org/2000/svg">
<path fill-rule="evenodd" clip-rule="evenodd" d="M1.33301 10.7202V5.2735C1.33301 2.92016 2.84701 1.3335 5.10634 1.3335H10.8863C13.1463 1.3335 14.6663 2.92016 14.6663 5.2735V10.7202C14.6663 13.0802 13.1463 14.6668 10.8863 14.6668H5.10634C2.84701 14.6668 1.33301 13.0802 1.33301 10.7202ZM8.49967 9.5135V5.28016C8.49967 5.00016 8.27301 4.78016 7.99967 4.78016C7.71967 4.78016 7.49967 5.00016 7.49967 5.28016V9.5135L5.85301 7.86016C5.75968 7.76683 5.62634 7.7135 5.49967 7.7135C5.37367 7.7135 5.24634 7.76683 5.14634 7.86016C4.95301 8.0535 4.95301 8.3735 5.14634 8.56683L7.64634 11.0802C7.83301 11.2668 8.16634 11.2668 8.35301 11.0802L10.853 8.56683C11.0463 8.3735 11.0463 8.0535 10.853 7.86016C10.653 7.66683 10.3397 7.66683 10.1397 7.86016L8.49967 9.5135Z" fill="#01B763"/>
</svg>
