<svg width="16" height="16" viewBox="0 0 16 16" fill="none" xmlns="http://www.w3.org/2000/svg">
<path fill-rule="evenodd" clip-rule="evenodd" d="M14.6663 5.28016V10.7268C14.6663 13.0802 13.1523 14.6668 10.893 14.6668H5.11301C2.85301 14.6668 1.33301 13.0802 1.33301 10.7268V5.28016C1.33301 2.92016 2.85301 1.3335 5.11301 1.3335H10.893C13.1523 1.3335 14.6663 2.92016 14.6663 5.28016ZM7.49967 6.48683V10.7202C7.49967 11.0002 7.72634 11.2202 7.99967 11.2202C8.27967 11.2202 8.49967 11.0002 8.49967 10.7202V6.48683L10.1463 8.14016C10.2397 8.2335 10.373 8.28683 10.4997 8.28683C10.6257 8.28683 10.753 8.2335 10.853 8.14016C11.0463 7.94683 11.0463 7.62683 10.853 7.4335L8.35301 4.92016C8.16634 4.7335 7.83301 4.7335 7.64634 4.92016L5.14634 7.4335C4.95301 7.62683 4.95301 7.94683 5.14634 8.14016C5.34634 8.3335 5.65967 8.3335 5.85967 8.14016L7.49967 6.48683Z" fill="#F75555"/>
</svg>
