<svg width="20" height="20" viewBox="0 0 20 20" fill="none" xmlns="http://www.w3.org/2000/svg">
<path fill-rule="evenodd" clip-rule="evenodd" d="M10.0003 1.66675C5.39805 1.66675 1.66699 5.39781 1.66699 10.0001C1.66699 14.6024 5.39805 18.3334 10.0003 18.3334C14.6026 18.3334 18.3337 14.6024 18.3337 10.0001C18.3337 5.39781 14.6026 1.66675 10.0003 1.66675ZM13.6124 8.59099C13.679 8.51496 13.7296 8.4264 13.7614 8.33051C13.7932 8.23463 13.8054 8.13335 13.7975 8.03265C13.7896 7.93194 13.7616 7.83384 13.7152 7.74412C13.6687 7.65439 13.6049 7.57486 13.5273 7.51019C13.4497 7.44552 13.3599 7.39702 13.2633 7.36755C13.1667 7.33808 13.0651 7.32824 12.9646 7.33859C12.8641 7.34894 12.7667 7.37928 12.6782 7.42783C12.5896 7.47638 12.5116 7.54216 12.4488 7.62129L9.19124 11.5296L7.50563 9.84326C7.36275 9.70527 7.17138 9.62891 6.97275 9.63063C6.77412 9.63236 6.58411 9.71203 6.44365 9.85249C6.30318 9.99295 6.22351 10.183 6.22178 10.3816C6.22006 10.5802 6.29642 10.7716 6.43442 10.9145L8.70714 13.1872C8.78158 13.2616 8.8707 13.3197 8.96882 13.3577C9.06694 13.3957 9.17192 13.4129 9.27704 13.4081C9.38217 13.4034 9.48516 13.3767 9.57943 13.33C9.67369 13.2832 9.75718 13.2173 9.82457 13.1364L13.6124 8.59099Z" fill="#34C582"/>
</svg>
