<svg width="28" height="28" viewBox="0 0 28 28" fill="none" xmlns="http://www.w3.org/2000/svg">
<path fill-rule="evenodd" clip-rule="evenodd" d="M23.7987 10.6704L24.639 11.5104C25.3043 12.1637 25.6661 13.0504 25.6661 13.9837C25.6777 14.917 25.3159 15.8049 24.6624 16.4687C24.6546 16.4773 24.6468 16.4848 24.639 16.4923C24.6351 16.4961 24.6312 16.4998 24.6274 16.5037L23.7987 17.332C23.4719 17.6587 23.2852 18.102 23.2852 18.5699V19.7704C23.2852 21.707 21.7096 23.2832 19.7723 23.2832H18.5702C18.1033 23.2832 17.6598 23.4687 17.333 23.7954L16.4927 24.6354C15.8042 25.3249 14.9055 25.662 14.0068 25.662C13.1082 25.662 12.2095 25.3249 11.5209 24.6482L10.669 23.7954C10.3422 23.4687 9.89869 23.2832 9.43185 23.2832H8.22975C6.29238 23.2832 4.71681 21.707 4.71681 19.7704V18.5699C4.71681 18.102 4.53007 17.6587 4.20329 17.3204L3.36298 16.492C1.99749 15.1282 1.98582 12.8987 3.35131 11.5232L4.20329 10.6704C4.53007 10.3437 4.71681 9.90038 4.71681 9.42205V8.23205C4.71681 6.29538 6.29238 4.72155 8.22975 4.72155H9.43185C9.89869 4.72155 10.3422 4.53371 10.669 4.20705L11.5093 3.36705C12.8748 1.99155 15.1039 1.99155 16.4811 3.35655L17.333 4.20705C17.6598 4.53371 18.1033 4.72155 18.5702 4.72155H19.7723C21.7096 4.72155 23.2852 6.29538 23.2852 8.23205V9.43488C23.2852 9.90038 23.4719 10.3437 23.7987 10.6704ZM10.9957 18.0204C11.2759 18.0204 11.5326 17.9154 11.7193 17.717L17.7182 11.7215C18.115 11.3249 18.115 10.6704 17.7182 10.2737C17.3214 9.87821 16.6795 9.87821 16.2827 10.2737L10.2838 16.2704C9.88701 16.667 9.88701 17.3204 10.2838 17.717C10.4706 17.9154 10.7273 18.0204 10.9957 18.0204ZM15.9792 16.9937C15.9792 17.5654 16.4344 18.0204 17.0063 18.0204C17.5665 18.0204 18.0216 17.5654 18.0216 16.9937C18.0216 16.4349 17.5665 15.9787 17.0063 15.9787C16.4344 15.9787 15.9792 16.4349 15.9792 16.9937ZM11.0074 9.98205C11.5676 9.98205 12.0228 10.437 12.0228 10.997C12.0228 11.5699 11.5676 12.0237 11.0074 12.0237C10.4472 12.0237 9.98038 11.5699 9.98038 10.997C9.98038 10.437 10.4472 9.98205 11.0074 9.98205Z" fill="white"/>
</svg>
