<svg width="16" height="16" viewBox="0 0 16 16" fill="none" xmlns="http://www.w3.org/2000/svg">
<path d="M7.48641 4.86018V2.18751C7.48641 1.90332 7.71307 1.6665 7.99974 1.6665C8.25641 1.6665 8.47386 1.8655 8.50832 2.11756L8.51307 2.18751V4.86018L11.6997 4.86039C13.2863 4.86039 14.5899 6.15969 14.6631 7.78011L14.6663 7.9239V11.2834C14.6663 12.9152 13.4081 14.2546 11.845 14.3298L11.7063 14.3332H4.29301C2.70634 14.3332 1.40907 13.0404 1.33623 11.414L1.33301 11.2697L1.33301 7.91701C1.33301 6.28524 2.58495 4.93931 4.14767 4.86373L4.28634 4.86039H7.48634V9.12865L6.41967 8.02716C6.21967 7.82063 5.89301 7.82063 5.69301 8.02716C5.59301 8.13043 5.54634 8.26811 5.54634 8.4058C5.54634 8.51044 5.57621 8.61949 5.63935 8.71179L5.69301 8.77755L7.63301 10.7878C7.72634 10.891 7.85967 10.9461 7.99967 10.9461C8.11079 10.9461 8.2219 10.9079 8.30986 10.8353L8.35967 10.7878L10.2997 8.77755C10.4997 8.57102 10.4997 8.23369 10.2997 8.02716C10.1179 7.83941 9.83136 7.82234 9.6305 7.97596L9.57301 8.02716L8.51301 9.12865V4.86039L7.48641 4.86018Z" fill="#01B763"/>
</svg>
