<svg width="20" height="21" viewBox="0 0 20 21" fill="none" xmlns="http://www.w3.org/2000/svg">
<path fill-rule="evenodd" clip-rule="evenodd" d="M8.16972 13.1102C8.69011 13.463 9.32434 13.6763 9.99923 13.6763C11.7881 13.6763 13.2436 12.2077 13.2436 10.4028C13.2436 9.72187 13.0321 9.08193 12.6825 8.55686L11.7962 9.45113C11.9426 9.73007 12.0239 10.0582 12.0239 10.4028C12.0239 11.5268 11.1132 12.4457 9.99923 12.4457C9.65772 12.4457 9.33247 12.3636 9.05601 12.216L8.16972 13.1102ZM15.3577 5.85767C16.5367 6.94063 17.5368 8.40098 18.2849 10.1567C18.3499 10.3126 18.3499 10.4931 18.2849 10.6407C16.5448 14.7265 13.4468 17.1713 9.99923 17.1713H9.9911C8.42178 17.1713 6.91752 16.6544 5.59214 15.711L4.0147 17.3026C3.89273 17.4256 3.73824 17.4831 3.58375 17.4831C3.42926 17.4831 3.26663 17.4256 3.1528 17.3026C2.94952 17.0975 2.91699 16.7693 3.07962 16.5314L3.10401 16.4986L15.13 4.3645L15.13 4.36449C15.1463 4.34809 15.1625 4.33168 15.1706 4.31527L15.1706 4.31527C15.1869 4.29886 15.2032 4.28245 15.2113 4.26605L15.9756 3.49485C16.2196 3.25693 16.6017 3.25693 16.8375 3.49485C17.0815 3.73277 17.0815 4.12657 16.8375 4.3645L15.3577 5.85767ZM6.74896 10.406C6.74896 10.6193 6.77336 10.8326 6.80588 11.0295L3.79735 14.0651C2.98424 13.1134 2.27683 11.9648 1.71578 10.6439C1.65073 10.4963 1.65073 10.3158 1.71578 10.1599C3.45585 6.07418 6.55381 3.63752 9.99329 3.63752H10.0014C11.1642 3.63752 12.2944 3.91646 13.3352 4.44154L10.6194 7.18175C10.4242 7.14893 10.2128 7.12432 10.0014 7.12432C8.20444 7.12432 6.74896 8.59288 6.74896 10.406Z" fill="#9E9E9E"/>
</svg>
