<svg width="20" height="21" viewBox="0 0 20 21" fill="none" xmlns="http://www.w3.org/2000/svg">
<path fill-rule="evenodd" clip-rule="evenodd" d="M14.6026 6.56308V7.84086C16.0379 8.28887 17.0837 9.58819 17.0837 11.1401V15.2542C17.0837 17.1754 15.4909 18.7331 13.5272 18.7331H6.47432C4.50979 18.7331 2.91699 17.1754 2.91699 15.2542V11.1401C2.91699 9.58819 3.96362 8.28887 5.39806 7.84086V6.56308C5.40653 4.07873 7.46421 2.06641 9.98763 2.06641C12.5449 2.06641 14.6026 4.07873 14.6026 6.56308ZM10.0046 3.51561C11.7235 3.51561 13.1207 4.882 13.1207 6.56308V7.66116H6.87993V6.54651C6.8884 4.87372 8.28559 3.51561 10.0046 3.51561ZM10.7413 14.1122C10.7413 14.518 10.411 14.8409 9.99609 14.8409C9.58964 14.8409 9.25939 14.518 9.25939 14.1122V12.2738C9.25939 11.8763 9.58964 11.5533 9.99609 11.5533C10.411 11.5533 10.7413 11.8763 10.7413 12.2738V14.1122Z" fill="#9E9E9E"/>
</svg>
