<svg width="20" height="20" viewBox="0 0 20 20" fill="none" xmlns="http://www.w3.org/2000/svg">
<path d="M6.66602 3.33317V13.3332C6.66602 13.7752 6.84161 14.1991 7.15417 14.5117C7.46673 14.8242 7.89065 14.9998 8.33268 14.9998H14.9993C15.4414 14.9998 15.8653 14.8242 16.1779 14.5117C16.4904 14.1991 16.666 13.7752 16.666 13.3332V6.03484C16.666 5.8128 16.6216 5.59301 16.5354 5.38837C16.4493 5.18374 16.3231 4.99837 16.1643 4.84317L13.4018 2.1415C13.0905 1.83705 12.6723 1.66656 12.2368 1.6665H8.33268C7.89065 1.6665 7.46673 1.8421 7.15417 2.15466C6.84161 2.46722 6.66602 2.89114 6.66602 3.33317V3.33317Z" stroke="#01B763" stroke-width="2" stroke-linecap="round" stroke-linejoin="round"/>
<path d="M13.333 14.9997V16.6663C13.333 17.1084 13.1574 17.5323 12.8449 17.8449C12.5323 18.1574 12.1084 18.333 11.6663 18.333H4.99967C4.55765 18.333 4.13372 18.1574 3.82116 17.8449C3.5086 17.5323 3.33301 17.1084 3.33301 16.6663V7.49967C3.33301 7.05765 3.5086 6.63372 3.82116 6.32116C4.13372 6.0086 4.55765 5.83301 4.99967 5.83301H6.66634" stroke="#01B763" stroke-width="2" stroke-linecap="round" stroke-linejoin="round"/>
</svg>
