<svg width="20" height="20" viewBox="0 0 20 20" fill="none" xmlns="http://www.w3.org/2000/svg">
<path d="M15.8337 9.86675C15.8337 9.48015 15.5203 9.16675 15.1337 9.16675H11.5337C11.1471 9.16675 10.8337 8.85335 10.8337 8.46675V4.86675C10.8337 4.48015 10.5203 4.16675 10.1337 4.16675H9.86699C9.48039 4.16675 9.16699 4.48015 9.16699 4.86675V8.46675C9.16699 8.85335 8.85359 9.16675 8.46699 9.16675H4.86699C4.48039 9.16675 4.16699 9.48015 4.16699 9.86675V10.1334C4.16699 10.52 4.48039 10.8334 4.86699 10.8334H8.46699C8.85359 10.8334 9.16699 11.1468 9.16699 11.5334V15.1334C9.16699 15.52 9.48039 15.8334 9.86699 15.8334H10.1337C10.5203 15.8334 10.8337 15.52 10.8337 15.1334V11.5334C10.8337 11.1468 11.1471 10.8334 11.5337 10.8334H15.1337C15.5203 10.8334 15.8337 10.52 15.8337 10.1334V9.86675Z" fill="white"/>
</svg>
